<svg width="145" height="22" viewBox="0 0 145 22" fill="none" xmlns="http://www.w3.org/2000/svg">
<path d="M9.46787 0.648438V17H5.52598V0.648438H9.46787ZM14.3868 0.648438V3.69189H0.719337V0.648438H14.3868ZM15.3504 11.0479V10.812C15.3504 9.92106 15.4777 9.10124 15.7322 8.35254C15.9868 7.59635 16.3611 6.94124 16.8553 6.38721C17.3494 5.83317 17.9596 5.40267 18.6858 5.0957C19.4121 4.78125 20.2506 4.62402 21.2015 4.62402C22.1598 4.62402 23.0021 4.78125 23.7283 5.0957C24.462 5.40267 25.076 5.83317 25.5701 6.38721C26.0643 6.94124 26.4386 7.59635 26.6932 8.35254C26.9477 9.10124 27.075 9.92106 27.075 10.812V11.0479C27.075 11.9313 26.9477 12.7511 26.6932 13.5073C26.4386 14.256 26.0643 14.9111 25.5701 15.4727C25.076 16.0267 24.4658 16.4572 23.7396 16.7642C23.0133 17.0711 22.1748 17.2246 21.2239 17.2246C20.2731 17.2246 19.4308 17.0711 18.6971 16.7642C17.9633 16.4572 17.3494 16.0267 16.8553 15.4727C16.3611 14.9111 15.9868 14.256 15.7322 13.5073C15.4777 12.7511 15.3504 11.9313 15.3504 11.0479ZM19.1351 10.812V11.0479C19.1351 11.5046 19.1688 11.9313 19.2361 12.3281C19.3035 12.7249 19.4158 13.0731 19.573 13.3726C19.7303 13.6646 19.9437 13.8929 20.2132 14.0576C20.4827 14.2223 20.8196 14.3047 21.2239 14.3047C21.6207 14.3047 21.9502 14.2223 22.2122 14.0576C22.4817 13.8929 22.6951 13.6646 22.8523 13.3726C23.0096 13.0731 23.1219 12.7249 23.1893 12.3281C23.2566 11.9313 23.2903 11.5046 23.2903 11.0479V10.812C23.2903 10.3703 23.2566 9.95475 23.1893 9.56543C23.1219 9.16862 23.0096 8.82048 22.8523 8.521C22.6951 8.21403 22.4817 7.97445 22.2122 7.80225C21.9427 7.63005 21.6058 7.54395 21.2015 7.54395C20.8047 7.54395 20.4715 7.63005 20.202 7.80225C19.9399 7.97445 19.7303 8.21403 19.573 8.521C19.4158 8.82048 19.3035 9.16862 19.2361 9.56543C19.1688 9.95475 19.1351 10.3703 19.1351 10.812ZM38.1572 14.0464V4.84863H41.9531V17H38.4043L38.1572 14.0464ZM38.5166 11.5757L39.5049 11.5532C39.5049 12.3693 39.4076 13.1255 39.2129 13.8218C39.0182 14.5106 38.73 15.1095 38.3481 15.6187C37.9738 16.1278 37.5096 16.5246 36.9556 16.8091C36.409 17.0861 35.7764 17.2246 35.0576 17.2246C34.4587 17.2246 33.9084 17.1423 33.4067 16.9775C32.9126 16.8053 32.4858 16.5396 32.1265 16.1802C31.7671 15.8133 31.4863 15.3454 31.2842 14.7764C31.0895 14.1999 30.9922 13.5111 30.9922 12.71V4.84863H34.7769V12.7324C34.7769 13.002 34.8105 13.234 34.8779 13.4287C34.9453 13.6234 35.0426 13.7881 35.1699 13.9229C35.2972 14.0501 35.4544 14.1475 35.6416 14.2148C35.8363 14.2747 36.0571 14.3047 36.3042 14.3047C36.8732 14.3047 37.3187 14.1849 37.6406 13.9453C37.9626 13.7057 38.1872 13.38 38.3145 12.9683C38.4492 12.5565 38.5166 12.0923 38.5166 11.5757ZM50.1604 7.8584V17H46.3757V4.84863H49.9133L50.1604 7.8584ZM53.7541 4.75879L53.6867 8.27393C53.537 8.25895 53.3348 8.24023 53.0803 8.21777C52.8257 8.19531 52.6123 8.18408 52.4401 8.18408C51.9984 8.18408 51.6166 8.23649 51.2946 8.34131C50.9802 8.43864 50.7181 8.58838 50.5085 8.79053C50.3064 8.98519 50.1566 9.23226 50.0593 9.53174C49.9694 9.83122 49.9283 10.1794 49.9357 10.5762L49.2507 10.127C49.2507 9.31087 49.3293 8.56966 49.4865 7.90332C49.6512 7.22949 49.8833 6.64925 50.1828 6.1626C50.4823 5.66846 50.8454 5.29036 51.2722 5.02832C51.6989 4.75879 52.1781 4.62402 52.7097 4.62402C52.8968 4.62402 53.0803 4.63525 53.26 4.65771C53.4471 4.68018 53.6119 4.71387 53.7541 4.75879ZM64.0614 11.4521H59.996V8.40869H64.0614C64.6155 8.40869 65.0647 8.3151 65.4091 8.12793C65.7535 7.94076 66.0043 7.68245 66.1615 7.35303C66.3262 7.01611 66.4086 6.63802 66.4086 6.21875C66.4086 5.76953 66.3262 5.354 66.1615 4.97217C66.0043 4.59033 65.7535 4.28337 65.4091 4.05127C65.0647 3.81169 64.6155 3.69189 64.0614 3.69189H61.4784V17H57.5365V0.648438H64.0614C65.3716 0.648438 66.4984 0.888021 67.4418 1.36719C68.3926 1.84635 69.1226 2.50521 69.6317 3.34375C70.1409 4.1748 70.3954 5.12565 70.3954 6.19629C70.3954 7.25195 70.1409 8.17285 69.6317 8.95898C69.1226 9.74512 68.3926 10.359 67.4418 10.8008C66.4984 11.235 65.3716 11.4521 64.0614 11.4521ZM78.4566 7.8584V17H74.672V4.84863H78.2096L78.4566 7.8584ZM82.0504 4.75879L81.983 8.27393C81.8333 8.25895 81.6311 8.24023 81.3766 8.21777C81.122 8.19531 80.9086 8.18408 80.7364 8.18408C80.2947 8.18408 79.9129 8.23649 79.5909 8.34131C79.2765 8.43864 79.0144 8.58838 78.8048 8.79053C78.6026 8.98519 78.4529 9.23226 78.3556 9.53174C78.2657 9.83122 78.2245 10.1794 78.232 10.5762L77.547 10.127C77.547 9.31087 77.6256 8.56966 77.7828 7.90332C77.9475 7.22949 78.1796 6.64925 78.4791 6.1626C78.7786 5.66846 79.1417 5.29036 79.5685 5.02832C79.9952 4.75879 80.4744 4.62402 81.006 4.62402C81.1931 4.62402 81.3766 4.63525 81.5563 4.65771C81.7434 4.68018 81.9081 4.71387 82.0504 4.75879ZM84.7772 11.0479V10.812C84.7772 9.92106 84.9044 9.10124 85.159 8.35254C85.4135 7.59635 85.7879 6.94124 86.282 6.38721C86.7762 5.83317 87.3864 5.40267 88.1126 5.0957C88.8388 4.78125 89.6774 4.62402 90.6282 4.62402C91.5866 4.62402 92.4288 4.78125 93.1551 5.0957C93.8888 5.40267 94.5027 5.83317 94.9969 6.38721C95.491 6.94124 95.8654 7.59635 96.1199 8.35254C96.3745 9.10124 96.5018 9.92106 96.5018 10.812V11.0479C96.5018 11.9313 96.3745 12.7511 96.1199 13.5073C95.8654 14.256 95.491 14.9111 94.9969 15.4727C94.5027 16.0267 93.8926 16.4572 93.1663 16.7642C92.4401 17.0711 91.6015 17.2246 90.6507 17.2246C89.6998 17.2246 88.8576 17.0711 88.1238 16.7642C87.3901 16.4572 86.7762 16.0267 86.282 15.4727C85.7879 14.9111 85.4135 14.256 85.159 13.5073C84.9044 12.7511 84.7772 11.9313 84.7772 11.0479ZM88.5618 10.812V11.0479C88.5618 11.5046 88.5955 11.9313 88.6629 12.3281C88.7303 12.7249 88.8426 13.0731 88.9998 13.3726C89.157 13.6646 89.3704 13.8929 89.6399 14.0576C89.9095 14.2223 90.2464 14.3047 90.6507 14.3047C91.0475 14.3047 91.3769 14.2223 91.639 14.0576C91.9085 13.8929 92.1219 13.6646 92.2791 13.3726C92.4363 13.0731 92.5486 12.7249 92.616 12.3281C92.6834 11.9313 92.7171 11.5046 92.7171 11.0479V10.812C92.7171 10.3703 92.6834 9.95475 92.616 9.56543C92.5486 9.16862 92.4363 8.82048 92.2791 8.521C92.1219 8.21403 91.9085 7.97445 91.639 7.80225C91.3694 7.63005 91.0325 7.54395 90.6282 7.54395C90.2314 7.54395 89.8982 7.63005 89.6287 7.80225C89.3667 7.97445 89.157 8.21403 88.9998 8.521C88.8426 8.82048 88.7303 9.16862 88.6629 9.56543C88.5955 9.95475 88.5618 10.3703 88.5618 10.812ZM104.305 7.42041V17H100.52V4.84863H104.069L104.305 7.42041ZM103.844 10.5088L102.979 10.5312C102.979 9.67773 103.081 8.8916 103.283 8.17285C103.485 7.4541 103.784 6.82894 104.181 6.29736C104.578 5.76579 105.065 5.354 105.641 5.06201C106.225 4.77002 106.899 4.62402 107.663 4.62402C108.194 4.62402 108.677 4.70638 109.111 4.87109C109.546 5.02832 109.92 5.27913 110.234 5.62354C110.549 5.96045 110.788 6.40218 110.953 6.94873C111.125 7.48779 111.211 8.13542 111.211 8.8916V17H107.427V9.37451C107.427 8.85791 107.367 8.46859 107.247 8.20654C107.135 7.9445 106.97 7.76855 106.753 7.67871C106.536 7.58887 106.27 7.54395 105.956 7.54395C105.626 7.54395 105.33 7.61882 105.068 7.76855C104.806 7.91829 104.582 8.12793 104.395 8.39746C104.215 8.65951 104.076 8.97021 103.979 9.32959C103.889 9.68896 103.844 10.082 103.844 10.5088ZM110.785 10.5088L109.729 10.5312C109.729 9.67773 109.823 8.8916 110.01 8.17285C110.204 7.4541 110.493 6.82894 110.875 6.29736C111.264 5.76579 111.747 5.354 112.323 5.06201C112.9 4.77002 113.57 4.62402 114.333 4.62402C114.888 4.62402 115.397 4.70638 115.861 4.87109C116.325 5.03581 116.726 5.3016 117.062 5.66846C117.399 6.03532 117.661 6.52197 117.849 7.12842C118.036 7.72738 118.129 8.46859 118.129 9.35205V17H114.333V9.35205C114.333 8.85042 114.274 8.47233 114.154 8.21777C114.042 7.95573 113.877 7.77979 113.66 7.68994C113.443 7.59261 113.184 7.54395 112.885 7.54395C112.525 7.54395 112.215 7.61882 111.953 7.76855C111.691 7.91829 111.47 8.12793 111.29 8.39746C111.118 8.65951 110.991 8.97021 110.908 9.32959C110.826 9.68896 110.785 10.082 110.785 10.5088ZM126.415 7.18457V21.6719H122.631V4.84863H126.157L126.415 7.18457ZM133.872 10.7783V11.0142C133.872 11.8976 133.771 12.7174 133.569 13.4736C133.367 14.2298 133.067 14.8887 132.671 15.4502C132.274 16.0117 131.78 16.4497 131.188 16.7642C130.604 17.0711 129.927 17.2246 129.155 17.2246C128.429 17.2246 127.804 17.0636 127.28 16.7417C126.756 16.4198 126.318 15.9743 125.966 15.4053C125.614 14.8363 125.33 14.1849 125.113 13.4512C124.895 12.7174 124.723 11.9425 124.596 11.1265V10.8232C124.723 9.94727 124.895 9.13493 125.113 8.38623C125.33 7.63005 125.614 6.97119 125.966 6.40967C126.318 5.84814 126.752 5.41016 127.269 5.0957C127.793 4.78125 128.418 4.62402 129.144 4.62402C129.915 4.62402 130.593 4.77002 131.177 5.06201C131.768 5.354 132.263 5.77327 132.659 6.31982C133.064 6.85889 133.367 7.50651 133.569 8.2627C133.771 9.01888 133.872 9.85742 133.872 10.7783ZM130.088 11.0142V10.7783C130.088 10.3066 130.054 9.87614 129.987 9.48682C129.919 9.09001 129.811 8.74561 129.661 8.45361C129.519 8.16162 129.328 7.93701 129.088 7.77979C128.849 7.62256 128.553 7.54395 128.201 7.54395C127.797 7.54395 127.456 7.60758 127.179 7.73486C126.909 7.85465 126.692 8.04183 126.528 8.29639C126.37 8.54346 126.258 8.85417 126.191 9.22852C126.131 9.59538 126.105 10.0259 126.112 10.52V11.4409C126.097 12.0099 126.153 12.5116 126.28 12.9458C126.408 13.3726 126.629 13.7057 126.943 13.9453C127.258 14.1849 127.684 14.3047 128.223 14.3047C128.583 14.3047 128.882 14.2223 129.122 14.0576C129.361 13.8854 129.552 13.6496 129.695 13.3501C129.837 13.0431 129.938 12.6912 129.998 12.2944C130.058 11.8976 130.088 11.4709 130.088 11.0142ZM144.258 4.84863V7.47656H136.936V4.84863H144.258ZM138.475 1.82764H142.259V13.0356C142.259 13.3576 142.297 13.6084 142.371 13.7881C142.446 13.9603 142.574 14.0838 142.753 14.1587C142.941 14.2261 143.188 14.2598 143.495 14.2598C143.712 14.2598 143.891 14.256 144.034 14.2485C144.176 14.2336 144.311 14.2148 144.438 14.1924V16.8989C144.116 17.0037 143.779 17.0824 143.427 17.1348C143.075 17.1947 142.701 17.2246 142.304 17.2246C141.496 17.2246 140.803 17.0973 140.226 16.8428C139.657 16.5882 139.223 16.1877 138.924 15.6411C138.624 15.0946 138.475 14.3833 138.475 13.5073V1.82764Z" fill="#305BE8"/>
</svg>
